<?xml version="1.0" encoding="UTF-8"?>
<svg version="1.1" xmlns="http://www.w3.org/2000/svg" width="409" height="371">
<path d="M0 0 C26.58374095 -0.64403398 51.00522104 0.61405162 75.15014648 13.05957031 C77.01654541 14.00841137 78.90692053 14.88307401 80.8125 15.75 C86.31600331 18.50175166 91.12456573 22.27843964 96 26 C97.01416992 26.7571228 97.01416992 26.7571228 98.04882812 27.52954102 C103.63624333 31.76416911 108.68910769 36.33838418 113.625 41.3125 C114.36919189 42.06088135 115.11338379 42.8092627 115.88012695 43.58032227 C120.89425382 48.6985985 125.32182623 53.8263101 129 60 C129.46792969 60.72316406 129.93585938 61.44632813 130.41796875 62.19140625 C132.03385091 64.75169139 133.52544179 67.35548716 135 70 C135.34321289 70.60779297 135.68642578 71.21558594 136.04003906 71.84179688 C145.44984134 88.73202407 150.98383634 106.92096877 151.2734375 126.3203125 C151.28592026 127.09346802 151.29840302 127.86662354 151.31126404 128.66320801 C151.59570654 150.49242743 150.39845111 169.90034219 141 190 C140.0418948 192.47723018 139.10652135 194.96116326 138.1875 197.453125 C127.9248241 219.4638641 108.26818731 239.14824213 88 252 C87.07445312 252.59039062 86.14890625 253.18078125 85.1953125 253.7890625 C76.7862971 258.97760392 68.32583743 262.75747806 59 266 C57.9275 266.4125 56.855 266.825 55.75 267.25 C52.42464854 268.15691404 49.43019152 268.13720766 46 268 C46 268.66 46 269.32 46 270 C36.62911908 271.60695966 27.54526018 272.31997286 18.04101562 272.26074219 C16.00100005 272.25000526 13.96186453 272.26072424 11.921875 272.2734375 C-0.4312177 272.28652655 -12.29405062 271.03653427 -24 267 C-25.05574219 266.66226562 -26.11148438 266.32453125 -27.19921875 265.9765625 C-36.3921045 262.90883579 -44.62971439 258.8377489 -53 254 C-54.14210938 253.35546875 -55.28421875 252.7109375 -56.4609375 252.046875 C-85.15828167 234.84160229 -107.87185075 204.42848632 -116 172 C-116.19319824 171.29987793 -116.38639648 170.59975586 -116.58544922 169.87841797 C-122.62369354 147.72175819 -122.29190323 122.05183172 -116 100 C-115.67644531 98.86046875 -115.35289063 97.7209375 -115.01953125 96.546875 C-114.10927996 93.64893212 -113.10134911 90.83030525 -112 88 C-111.608125 86.98550781 -111.21625 85.97101563 -110.8125 84.92578125 C-97.99937967 53.01310342 -72.76322512 27.11062438 -42 12 C-37.43180759 10.05669787 -32.71460767 8.54403401 -28 7 C-26.5380527 6.44696072 -25.07898626 5.88614302 -23.625 5.3125 C-15.43379476 2.34671879 -8.68179743 1.73954608 0 2 C0 1.34 0 0.68 0 0 Z M-5 16 C-5 16.66 -5 17.32 -5 18 C-5.6290625 17.96519531 -6.258125 17.93039063 -6.90625 17.89453125 C-13.10384892 17.69852285 -17.31903721 18.55130914 -23 21 C-24.32738136 21.3562971 -25.65969218 21.69592135 -27 22 C-27 22.66 -27 23.32 -27 24 C-29.31 24 -31.62 24 -34 24 C-34 24.66 -34 25.32 -34 26 C-34.66 26 -35.32 26 -36 26 C-36 26.66 -36 27.32 -36 28 C-37.65 28 -39.3 28 -41 28 C-41 28.66 -41 29.32 -41 30 C-41.66 30 -42.32 30 -43 30 C-43.33 31.32 -43.66 32.64 -44 34 C-46.31 34 -48.62 34 -51 34 C-51 34.66 -51 35.32 -51 36 C-51.66 36 -52.32 36 -53 36 C-53 36.66 -53 37.32 -53 38 C-53.99 38 -54.98 38 -56 38 C-56 38.66 -56 39.32 -56 40 C-57.32 40 -58.64 40 -60 40 C-60 40.66 -60 41.32 -60 42 C-60.66 42 -61.32 42 -62 42 C-62 43.32 -62 44.64 -62 46 C-63.32 46 -64.64 46 -66 46 C-66.33 47.32 -66.66 48.64 -67 50 C-67.66 50 -68.32 50 -69 50 C-69.495 50.99 -69.495 50.99 -70 52 C-70.66 52 -71.32 52 -72 52 C-72 52.66 -72 53.32 -72 54 C-72.66 54 -73.32 54 -74 54 C-74 54.66 -74 55.32 -74 56 C-74.66 56 -75.32 56 -76 56 C-76.33 57.32 -76.66 58.64 -77 60 C-77.99 60 -78.98 60 -80 60 C-80 60.66 -80 61.32 -80 62 C-80.66 62 -81.32 62 -82 62 C-82 63.32 -82 64.64 -82 66 C-82.66 66 -83.32 66 -84 66 C-84.66 67.98 -85.32 69.96 -86 72 C-86.66 72 -87.32 72 -88 72 C-88.33 73.98 -88.66 75.96 -89 78 C-89.99 78 -90.98 78 -92 78 C-91.67 79.32 -91.34 80.64 -91 82 C-91.66 82 -92.32 82 -93 82 C-93.67667998 83.24460783 -94.34094719 84.49596896 -95 85.75 C-95.37125 86.44609375 -95.7425 87.1421875 -96.125 87.859375 C-97.25224649 90.23167757 -97.25224649 90.23167757 -97 94 C-97.66 94 -98.32 94 -99 94 C-100.97513861 98.93784652 -101.26186347 102.7627306 -101 108 C-100.67 108.66 -100.34 109.32 -100 110 C-100.99 110 -101.98 110 -103 110 C-108.57550019 134.31250947 -107.09591467 163.63662288 -95 186 C-94.34 186 -93.68 186 -93 186 C-92.7525 187.155 -92.505 188.31 -92.25 189.5 C-91.12593652 194.06141704 -89.21371309 197.86773557 -87 202 C-86.34 202 -85.68 202 -85 202 C-85 203.32 -85 204.64 -85 206 C-84.01 206 -83.02 206 -82 206 C-81.34 207.98 -80.68 209.96 -80 212 C-79.34 212 -78.68 212 -78 212 C-77 214 -76 216 -75 218 C-74.01 218 -73.02 218 -72 218 C-71.67 219.32 -71.34 220.64 -71 222 C-70.34 222 -69.68 222 -69 222 C-69 222.66 -69 223.32 -69 224 C-68.01 224 -67.02 224 -66 224 C-66 224.66 -66 225.32 -66 226 C-65.01 226 -64.02 226 -63 226 C-63 226.66 -63 227.32 -63 228 C-62.34 228 -61.68 228 -61 228 C-61 228.66 -61 229.32 -61 230 C-60.34 230 -59.68 230 -59 230 C-59 230.66 -59 231.32 -59 232 C-58.34 232 -57.68 232 -57 232 C-57 232.66 -57 233.32 -57 234 C-55.68 234 -54.36 234 -53 234 C-53 234.66 -53 235.32 -53 236 C-52.34 236 -51.68 236 -51 236 C-51 236.66 -51 237.32 -51 238 C-50.34 238 -49.68 238 -49 238 C-49 238.66 -49 239.32 -49 240 C-47.35 240 -45.7 240 -44 240 C-44 240.66 -44 241.32 -44 242 C-41.04622502 244.36980013 -41.04622502 244.36980013 -37 244 C-37 244.66 -37 245.32 -37 246 C-35.35 246 -33.7 246 -32 246 C-32 246.66 -32 247.32 -32 248 C-30.68 248 -29.36 248 -28 248 C-28 248.66 -28 249.32 -28 250 C-26.35 250 -24.7 250 -23 250 C-23 250.66 -23 251.32 -23 252 C-20.69 252 -18.38 252 -16 252 C-16 252.66 -16 253.32 -16 254 C-13.36 254 -10.72 254 -8 254 C-8 254.66 -8 255.32 -8 256 C-2.39 256 3.22 256 9 256 C9 256.66 9 257.32 9 258 C11.31 258 13.62 258 16 258 C16 257.34 16 256.68 16 256 C16.9744104 256.01571045 16.9744104 256.01571045 17.96850586 256.03173828 C20.95813001 256.07372962 23.94769179 256.09946167 26.9375 256.125 C28.46987305 256.15013672 28.46987305 256.15013672 30.03320312 256.17578125 C36.34250596 256.21609628 41.92836539 255.78101282 48 254 C48.33 253.34 48.66 252.68 49 252 C48.67 251.34 48.34 250.68 48 250 C48.66 250 49.32 250 50 250 C50 250.66 50 251.32 50 252 C51.32 252 52.64 252 54 252 C54 251.34 54 250.68 54 250 C55.65 250 57.3 250 59 250 C59 249.34 59 248.68 59 248 C60.65 248 62.3 248 64 248 C64 247.34 64 246.68 64 246 C65.65 246 67.3 246 69 246 C68.67 244.68 68.34 243.36 68 242 C70.64 242 73.28 242 76 242 C76 241.34 76 240.68 76 240 C77.32 240 78.64 240 80 240 C80 239.34 80 238.68 80 238 C80.99 238 81.98 238 83 238 C83 236.68 83 235.36 83 234 C84.32 234 85.64 234 87 234 C87 233.34 87 232.68 87 232 C88.32 232 89.64 232 91 232 C91.33 230.68 91.66 229.36 92 228 C93.32 228 94.64 228 96 228 C96.33 226.68 96.66 225.36 97 224 C97.61875 223.9175 98.2375 223.835 98.875 223.75 C101.17972859 223.20605562 101.17972859 223.20605562 102.0625 221 C102.371875 220.34 102.68125 219.68 103 219 C103.99 218.67 104.98 218.34 106 218 C106 217.34 106 216.68 106 216 C106.66 216 107.32 216 108 216 C108.1546875 215.0409375 108.1546875 215.0409375 108.3125 214.0625 C108.539375 213.381875 108.76625 212.70125 109 212 C109.99 211.67 110.98 211.34 112 211 C112 210.01 112 209.02 112 208 C112.66 208 113.32 208 114 208 C114 207.34 114 206.68 114 206 C114.66 206 115.32 206 116 206 C116.67154933 204.71086513 117.33708859 203.41859796 118 202.125 C118.556875 201.04605469 118.556875 201.04605469 119.125 199.9453125 C120.13673746 198.05151023 120.13673746 198.05151023 120 196 C120.66 196 121.32 196 122 196 C122.50833591 194.75336669 123.00631145 193.50250613 123.5 192.25 C123.91765625 191.20585937 123.91765625 191.20585937 124.34375 190.140625 C125.19540327 187.73577305 125.19540327 187.73577305 125 184 C125.66 184 126.32 184 127 184 C129.79224857 181.20775143 130.5702925 178.30544112 131.3984375 174.515625 C132.13912325 171.41821186 133.11493355 168.41539307 134.0625 165.375 C136.11311281 158.1940436 136.80492516 151.44405579 137 144 C137.04664795 143.01918457 137.04664795 143.01918457 137.09423828 142.01855469 C137.55175551 132.33022494 136.79834034 123.07625262 135.25 113.5 C135.01470581 112.0142749 135.01470581 112.0142749 134.7746582 110.49853516 C133.62566756 103.941849 131.7117549 98.07566189 129 92 C128.34 92 127.68 92 127 92 C126.896875 91.175 126.79375 90.35 126.6875 89.5 C125.88353944 85.40710988 124.53647842 81.87459775 123 78 C122.34 78 121.68 78 121 78 C120.566875 76.63875 120.566875 76.63875 120.125 75.25 C119.23468224 72.67797092 118.28505587 70.38653234 117 68 C116.01 68 115.02 68 114 68 C113.566875 66.2984375 113.566875 66.2984375 113.125 64.5625 C112.75375 63.386875 112.3825 62.21125 112 61 C111.34 60.67 110.68 60.34 110 60 C110 60.66 110 61.32 110 62 C109.34 62 108.68 62 108 62 C108 60.02 108 58.04 108 56 C107.01 56 106.02 56 105 56 C104.67 54.68 104.34 53.36 104 52 C103.01 52 102.02 52 101 52 C101 51.34 101 50.68 101 50 C100.01 50 99.02 50 98 50 C97.01 47.03 97.01 47.03 96 44 C94.68 44 93.36 44 92 44 C91.67 43.01 91.34 42.02 91 41 C90.01 39.515 90.01 39.515 89 38 C88.01 38 87.02 38 86 38 C86 37.34 86 36.68 86 36 C85.01 36 84.02 36 83 36 C83 35.34 83 34.68 83 34 C80.69 34 78.38 34 76 34 C75.01 32.02 75.01 32.02 74 30 C73.34 30 72.68 30 72 30 C72 29.34 72 28.68 72 28 C70.68 28 69.36 28 68 28 C68 27.34 68 26.68 68 26 C67.34 26 66.68 26 66 26 C65.67 25.34 65.34 24.68 65 24 C63.02 24 61.04 24 59 24 C59 23.34 59 22.68 59 22 C55.17010894 20.19769832 52.21878192 19.80377759 48 20 C48 19.34 48 18.68 48 18 C44.7 18 41.4 18 38 18 C38 17.34 38 16.68 38 16 C23.81 16 9.62 16 -5 16 Z " fill="#00898C" transform="translate(208,66)"/>
<path d="M0 0 C11.55 0 23.1 0 35 0 C35 0.66 35 1.32 35 2 C36.32 2 37.64 2 39 2 C39 2.66 39 3.32 39 4 C39.99 4 40.98 4 42 4 C42 4.66 42 5.32 42 6 C43.32 6 44.64 6 46 6 C46 6.66 46 7.32 46 8 C46.66 8 47.32 8 48 8 C48 8.66 48 9.32 48 10 C48.66 10 49.32 10 50 10 C50 10.66 50 11.32 50 12 C50.99 12 51.98 12 53 12 C53.495 13.98 53.495 13.98 54 16 C54.66 16 55.32 16 56 16 C56 16.66 56 17.32 56 18 C56.66 18 57.32 18 58 18 C64.77106903 30.95049126 65.0602472 39.93414364 61 54 C60.34 54 59.68 54 59 54 C58.9175 54.5775 58.835 55.155 58.75 55.75 C57.78202213 58.6539336 56.31305716 60.03740604 54 62 C53.34 62 52.68 62 52 62 C51.71125 62.61875 51.4225 63.2375 51.125 63.875 C50 66 50 66 48 68 C47.01 68 46.02 68 45 68 C45 68.66 45 69.32 45 70 C44.01 70 43.02 70 42 70 C42 70.66 42 71.32 42 72 C40.68 72 39.36 72 38 72 C38 72.66 38 73.32 38 74 C36.35 74 34.7 74 33 74 C33 74.66 33 75.32 33 76 C31.02 76 29.04 76 27 76 C27 76.66 27 77.32 27 78 C25.68 78 24.36 78 23 78 C24.07814559 83.03134607 26.0816934 85.66494963 29.98046875 88.80859375 C33.29139369 90.76184734 36.19241023 90.86640036 40 91 C40.495 89.515 40.495 89.515 41 88 C41.69996094 87.09894531 41.69996094 87.09894531 42.4140625 86.1796875 C44.28198414 83.61244544 45.25061573 81.09065784 46.375 78.125 C48.81899643 72.14268038 50.79626403 67.53222155 56.875 64.625 C60.33241594 63.93351681 63.48211965 63.86469691 67 64 C67.66 64 68.32 64 69 64 C69.99 63.01 69.99 63.01 71 62 C77.19602454 60.8515989 82.32670227 62.59795032 87.93359375 65.125 C90.9620226 66.40735929 91.93783104 66.01923295 95.16455078 65.02099609 C100.97096356 63.47532975 106.740725 63.62804288 112.70556641 63.62939453 C114.86310995 63.62502409 117.01859874 63.58864381 119.17578125 63.55078125 C128.35216393 63.47605533 135.45832289 64.36665831 142.8125 70.25 C148.14409913 76.95258176 149.58937822 82.50249141 149.25 91 C149.23195313 91.87011719 149.21390625 92.74023438 149.1953125 93.63671875 C149.14868436 95.75829907 149.07696077 97.87930335 149 100 C149.99 100 150.98 100 152 100 C152 101.32 152 102.64 152 104 C151.01 104 150.02 104 149 104 C149.99 108.29 150.98 112.58 152 117 C152.66 117 153.32 117 154 117 C154 117.66 154 118.32 154 119 C154.9075 119 155.815 119 156.75 119 C159.16666667 119 161.58333333 119 164 119 C165 121 165 121 164.4375 123.0625 C163 125 163 125 160.3125 125.9375 C156.0649664 126.01764214 153.77547058 124.88773529 150 123 C150.350625 124.0725 150.70125 125.145 151.0625 126.25 C152.23076923 130.92307692 152.23076923 130.92307692 151 134 C149.783125 134.04125 148.56625 134.0825 147.3125 134.125 C146.62800781 134.14820313 145.94351563 134.17140625 145.23828125 134.1953125 C142.41759121 133.94917899 140.48898976 133.36585884 138 132 C136.7421875 129.7578125 136.7421875 129.7578125 135.875 127.125 C134.66173816 123.52816181 133.3024992 121.00495658 131 118 C131 117.34 131 116.68 131 116 C130.34 116 129.68 116 129 116 C129.62380692 117.41719242 130.2491003 118.8337306 130.875 120.25 C131.39707031 121.43335938 131.39707031 121.43335938 131.9296875 122.640625 C133.93552334 127.17115232 133.93552334 127.17115232 137 131 C133.8215579 133.82528187 131.66902235 134.45394261 127.4375 134.5 C126.01244141 134.54640625 126.01244141 134.54640625 124.55859375 134.59375 C122 134 122 134 120.34375 131.84765625 C119.9003125 130.90792969 119.456875 129.96820313 119 129 C118.51660156 128.01902344 118.03320312 127.03804688 117.53515625 126.02734375 C116.55285491 123.96633485 115.57368938 121.90382847 114.59765625 119.83984375 C113.0191865 117.03410412 111.38015185 115.14367888 109 113 C109 113.99 109 114.98 109 116 C105.7 115.34 102.4 114.68 99 114 C99.144375 115.464375 99.28875 116.92875 99.4375 118.4375 C99.51871094 119.26121094 99.59992188 120.08492188 99.68359375 120.93359375 C99.78930815 122.98662025 99.78930815 122.98662025 101 124 C102.11375 123.95875 103.2275 123.9175 104.375 123.875 C108 124 108 124 109.875 125.1875 C111.27953299 127.45035871 111.72228509 129.36170833 112 132 C109.64758071 134.35241929 103.78456887 133.18542134 100.625 133.1875 C99.65304687 133.19974609 98.68109375 133.21199219 97.6796875 133.22460938 C96.27976562 133.22750977 96.27976562 133.22750977 94.8515625 133.23046875 C93.99385254 133.23457764 93.13614258 133.23868652 92.25244141 133.24291992 C90 133 90 133 87 131 C86.05078125 128.8359375 86.05078125 128.8359375 85.3125 126.375 C85.06113281 125.55773437 84.80976563 124.74046875 84.55078125 123.8984375 C84.36902344 123.27195312 84.18726563 122.64546875 84 122 C81.11024179 126.24104127 81.11024179 126.24104127 78.8125 130.8125 C76.58910071 133.49591294 75.68447835 133.43315244 72.3125 133.8125 C70.8761407 133.89726123 69.43847561 133.96682761 68 134 C66.28629649 131.03471528 65.91653051 130.3794068 66.6875 126.875 C67.11126954 125.57876375 67.55036088 124.28749124 68 123 C70.01288404 117.12665721 71.22653635 112.2099567 70.97265625 105.984375 C71.00899506 103.34721597 71.79967194 101.32563562 73 99 C72.34 98.67 71.68 98.34 71 98 C71 98.66 71 99.32 71 100 C70.071875 100.12375 69.14375 100.2475 68.1875 100.375 C64.86074765 100.81533082 64.86074765 100.81533082 62 103 C60.7315625 102.9071875 60.7315625 102.9071875 59.4375 102.8125 C55.8089252 103.01042226 54.42266684 103.70962953 51.3125 105.4375 C46.0423435 108.24399786 40.98273762 109.37272647 35 109 C32.6796875 108.00390625 32.6796875 108.00390625 31 107 C31 106.34 31 105.68 31 105 C32.98 104.67 34.96 104.34 37 104 C37 103.34 37 102.68 37 102 C35.700625 102.0928125 35.700625 102.0928125 34.375 102.1875 C29.26720405 101.90373356 26.21658853 100.04279016 22.375 96.75 C17.46050225 91.05952892 15.12729648 85.10710417 13 78 C11.68 78 10.36 78 9 78 C9 77.34 9 76.68 9 76 C8.154375 76.061875 7.30875 76.12375 6.4375 76.1875 C2.39189091 75.96683041 -0.33098704 74.66773316 -4 73 C-6.77888613 72.30859478 -6.77888613 72.30859478 -9 72 C-9 71.34 -9 70.68 -9 70 C-9.66 70 -10.32 70 -11 70 C-11 69.34 -11 68.68 -11 68 C-12.32 68 -13.64 68 -15 68 C-15 67.34 -15 66.68 -15 66 C-15.66 66 -16.32 66 -17 66 C-17 65.34 -17 64.68 -17 64 C-17.66 64 -18.32 64 -19 64 C-19.33 62.68 -19.66 61.36 -20 60 C-20.66 60 -21.32 60 -22 60 C-22 59.34 -22 58.68 -22 58 C-22.66 58 -23.32 58 -24 58 C-24.391875 57.525625 -24.78375 57.05125 -25.1875 56.5625 C-27.01946153 54.64698265 -27.01946153 54.64698265 -30.3125 54.9375 C-34.66385233 53.83122398 -34.9626198 53.14186906 -37.1875 49.4375 C-38.14203687 47.63391416 -39.08004109 45.82146592 -40 44 C-40.65935547 42.89591797 -40.65935547 42.89591797 -41.33203125 41.76953125 C-43.34095043 38.29591515 -44.15354223 36.7984196 -43.375 32.75 C-42.92125 31.8425 -42.4675 30.935 -42 30 C-41.71125 29.2575 -41.4225 28.515 -41.125 27.75 C-39.72531795 25.57271681 -38.32322317 25.04919756 -36 24 C-35.67 23.34 -35.34 22.68 -35 22 C-34.34 22 -33.68 22 -33 22 C-33 22.66 -33 23.32 -33 24 C-30.36 24 -27.72 24 -25 24 C-25 24.66 -25 25.32 -25 26 C-24.34 26 -23.68 26 -23 26 C-23 26.66 -23 27.32 -23 28 C-22.34 28 -21.68 28 -21 28 C-20.71125 28.804375 -20.4225 29.60875 -20.125 30.4375 C-19.26737432 33.1326468 -19.26737432 33.1326468 -17 34 C-16.29508733 36.32206525 -15.62787571 38.65593068 -15 41 C-14.505 41.495 -14.505 41.495 -14 42 C-13.76470588 47.52941176 -13.76470588 47.52941176 -15 50 C-15.66 50 -16.32 50 -17 50 C-17 50.66 -17 51.32 -17 52 C-17.66 52 -18.32 52 -19 52 C-19 52.66 -19 53.32 -19 54 C-18.34 54 -17.68 54 -17 54 C-16.67 55.32 -16.34 56.64 -16 58 C-15.34 58 -14.68 58 -14 58 C-14 58.66 -14 59.32 -14 60 C-12.515 60.495 -12.515 60.495 -11 61 C-11 61.66 -11 62.32 -11 63 C-8.03 62.505 -8.03 62.505 -5 62 C-5 62.66 -5 63.32 -5 64 C-4.34 64 -3.68 64 -3 64 C-2.01 65.485 -2.01 65.485 -1 67 C1.05925139 67.72382467 1.05925139 67.72382467 3 68 C3 68.66 3 69.32 3 70 C12.24 70 21.48 70 31 70 C31 69.34 31 68.68 31 68 C32.32 68 33.64 68 35 68 C35 67.34 35 66.68 35 66 C35.66 66 36.32 66 37 66 C37 65.34 37 64.68 37 64 C38.65 64 40.3 64 42 64 C42 63.34 42 62.68 42 62 C44.63892176 60.21694476 46.97178863 59.00940379 50 58 C50.77403558 53.93631321 51.0984702 50.13574827 51 46 C51.66 46 52.32 46 53 46 C53 47.32 53 48.64 53 50 C53.66 50 54.32 50 55 50 C55.66 44.06 56.32 38.12 57 32 C56.01 32 55.02 32 54 32 C54 29.36 54 26.72 54 24 C53.34 24 52.68 24 52 24 C51.505 22.02 51.505 22.02 51 20 C50.34 20 49.68 20 49 20 C49 19.34 49 18.68 49 18 C48.34 18 47.68 18 47 18 C46.505 16.02 46.505 16.02 46 14 C44.35 14 42.7 14 41 14 C40.505 12.02 40.505 12.02 40 10 C38.68 10 37.36 10 36 10 C36 9.34 36 8.68 36 8 C32.61363691 7.25484101 29.38056897 6.83229437 25.91796875 6.68359375 C24.98662109 6.64169922 24.05527344 6.59980469 23.09570312 6.55664062 C22.13599609 6.51732422 21.17628906 6.47800781 20.1875 6.4375 C19.20845703 6.39431641 18.22941406 6.35113281 17.22070312 6.30664062 C14.81392973 6.2009774 12.40706017 6.09887673 10 6 C10 6.66 10 7.32 10 8 C9.27554688 8.03738281 8.55109375 8.07476562 7.8046875 8.11328125 C2.15392978 8.49753278 -2.02913036 9.06846149 -7 12 C-7.66 12 -8.32 12 -9 12 C-9 12.66 -9 13.32 -9 14 C-9.99 14 -10.98 14 -12 14 C-12 15.98 -12 17.96 -12 20 C-10.35 20 -8.7 20 -7 20 C-7 20.66 -7 21.32 -7 22 C-6.34 22 -5.68 22 -5 22 C-5 22.66 -5 23.32 -5 24 C-4.34 24 -3.68 24 -3 24 C-3 24.66 -3 25.32 -3 26 C-1.68 26 -0.36 26 1 26 C1 25.34 1 24.68 1 24 C2.32 24 3.64 24 5 24 C5 24.66 5 25.32 5 26 C9.95 26 14.9 26 20 26 C20 25.34 20 24.68 20 24 C22.39760577 24.23525568 24.7947486 24.47398496 27.19140625 24.71875 C28.96895346 24.89675195 30.74756046 25.06470384 32.52734375 25.21875 C33.30207031 25.2909375 34.07679688 25.363125 34.875 25.4375 C35.57367188 25.49808594 36.27234375 25.55867188 36.9921875 25.62109375 C39.26090333 26.04923662 40.98834455 26.88592176 43 28 C43.02698189 29.62490954 43.04638757 31.24994633 43.0625 32.875 C43.07410156 33.77992188 43.08570313 34.68484375 43.09765625 35.6171875 C43 38 43 38 42 40 C41.79777644 41.66272703 41.63588613 43.33054185 41.5 45 C41.11111111 49.77777778 41.11111111 49.77777778 40 52 C40.66 52 41.32 52 42 52 C42.99 54.97 42.99 54.97 44 58 C42.25 60 42.25 60 40 62 C38.68 62 37.36 62 36 62 C36 62.66 36 63.32 36 64 C32.71303767 64.79953138 31.28976808 65.09658936 28 64 C26.8125 60.9375 26.8125 60.9375 26 58 C23.03 58 20.06 58 17 58 C16.79375 58.94875 16.5875 59.8975 16.375 60.875 C15 64 15 64 11.875 65.375 C10.451875 65.684375 10.451875 65.684375 9 66 C7.5 64.9375 7.5 64.9375 6 63 C5.8125 59.3125 5.8125 59.3125 6 56 C3.69 56 1.38 56 -1 56 C-1 55.34 -1 54.68 -1 54 C-1.99 54 -2.98 54 -4 54 C-6.71626533 49.06133577 -8.24446672 44.15592529 -9.6875 38.75 C-9.91244141 37.9353125 -10.13738281 37.120625 -10.36914062 36.28125 C-12 30.29317059 -12 30.29317059 -12 28 C-12.66 28 -13.32 28 -14 28 C-14 27.34 -14 26.68 -14 26 C-15.1446875 25.7834375 -15.1446875 25.7834375 -16.3125 25.5625 C-19.63737762 24.86659538 -21.56552823 24.43447177 -24 22 C-24.33 21.34 -24.66 20.68 -25 20 C-24.34 20 -23.68 20 -23 20 C-23 18.68 -23 17.36 -23 16 C-22.01 16 -21.02 16 -20 16 C-19.67 14.68 -19.34 13.36 -19 12 C-18.34 12 -17.68 12 -17 12 C-17 11.34 -17 10.68 -17 10 C-15.35 9.34 -13.7 8.68 -12 8 C-12 7.34 -12 6.68 -12 6 C-10.68 6 -9.36 6 -8 6 C-8 5.34 -8 4.68 -8 4 C-6.35 4 -4.7 4 -3 4 C-3 3.34 -3 2.68 -3 2 C-2.01 2 -1.02 2 0 2 C0 1.34 0 0.68 0 0 Z M28 32 C28 32.66 28 33.32 28 34 C30.31 34 32.62 34 35 34 C35.33 33.34 35.66 32.68 36 32 C31.89776415 30.98459888 31.89776415 30.98459888 28 32 Z M-2 32 C-2 32.66 -2 33.32 -2 34 C-0.02 34 1.96 34 4 34 C3.67 33.01 3.34 32.02 3 31 C0.78918149 30.89459074 0.78918149 30.89459074 -2 32 Z M12 32 C12 32.66 12 33.32 12 34 C14.31 34 16.62 34 19 34 C19 33.34 19 32.68 19 32 C16.69 32 14.38 32 12 32 Z M14 40 C15 42 15 42 15 42 Z M19 40 C19 40.66 19 41.32 19 42 C19.66 42 20.32 42 21 42 C21 41.34 21 40.68 21 40 C20.34 40 19.68 40 19 40 Z M28 40 C28 40.66 28 41.32 28 42 C29.98 42 31.96 42 34 42 C34 41.34 34 40.68 34 40 C32.02 40 30.04 40 28 40 Z M-22 43 C-22.99 43.495 -22.99 43.495 -24 44 C-24 44.66 -24 45.32 -24 46 C-23.34 46 -22.68 46 -22 46 C-22 46.66 -22 47.32 -22 48 C-21.01 47.67 -20.02 47.34 -19 47 C-19 46.01 -19 45.02 -19 44 C-19.99 43.67 -20.98 43.34 -22 43 Z M-31 46 C-31.33 47.32 -31.66 48.64 -32 50 C-29.525 50.495 -29.525 50.495 -27 51 C-26.67 50.01 -26.34 49.02 -26 48 C-26.33 47.34 -26.66 46.68 -27 46 C-28.32 46 -29.64 46 -31 46 Z M29 48 C29 48.66 29 49.32 29 50 C29.66 50 30.32 50 31 50 C31 49.34 31 48.68 31 48 C30.34 48 29.68 48 29 48 Z M58 82 C59 85 59 85 59 85 Z M69 96 C69 96.66 69 97.32 69 98 C69.66 97.67 70.32 97.34 71 97 C70.34 96.67 69.68 96.34 69 96 Z M141 100 C140.67 100.66 140.34 101.32 140 102 C140.99 102.33 141.98 102.66 143 103 C143 102.01 143 101.02 143 100 C142.34 100 141.68 100 141 100 Z M149 121 C150 123 150 123 150 123 Z " fill="#0073E4" transform="translate(163,140)"/>
<path d="M0 0 C11.55 0 23.1 0 35 0 C35 0.66 35 1.32 35 2 C36.32 2 37.64 2 39 2 C39 2.66 39 3.32 39 4 C39.99 4 40.98 4 42 4 C42 4.66 42 5.32 42 6 C43.32 6 44.64 6 46 6 C46 6.66 46 7.32 46 8 C46.66 8 47.32 8 48 8 C48 8.66 48 9.32 48 10 C48.66 10 49.32 10 50 10 C50 10.66 50 11.32 50 12 C50.99 12 51.98 12 53 12 C53.495 13.98 53.495 13.98 54 16 C54.66 16 55.32 16 56 16 C56 16.66 56 17.32 56 18 C56.66 18 57.32 18 58 18 C64.77106903 30.95049126 65.0602472 39.93414364 61 54 C60.34 54 59.68 54 59 54 C58.9175 54.5775 58.835 55.155 58.75 55.75 C57.78202213 58.6539336 56.31305716 60.03740604 54 62 C53.34 62 52.68 62 52 62 C51.71125 62.61875 51.4225 63.2375 51.125 63.875 C50 66 50 66 48 68 C47.01 68 46.02 68 45 68 C45 68.66 45 69.32 45 70 C44.01 70 43.02 70 42 70 C42 70.66 42 71.32 42 72 C40.68 72 39.36 72 38 72 C38 72.66 38 73.32 38 74 C36.35 74 34.7 74 33 74 C33 74.66 33 75.32 33 76 C31.02 76 29.04 76 27 76 C27 76.66 27 77.32 27 78 C22.71 78 18.42 78 14 78 C13.67 78.66 13.34 79.32 13 80 C13 79.34 13 78.68 13 78 C11.68 78 10.36 78 9 78 C9 77.34 9 76.68 9 76 C8.154375 76.061875 7.30875 76.12375 6.4375 76.1875 C2.39189091 75.96683041 -0.33098704 74.66773316 -4 73 C-6.77888613 72.30859478 -6.77888613 72.30859478 -9 72 C-9 71.34 -9 70.68 -9 70 C-9.66 70 -10.32 70 -11 70 C-11 69.34 -11 68.68 -11 68 C-12.32 68 -13.64 68 -15 68 C-15 67.34 -15 66.68 -15 66 C-15.66 66 -16.32 66 -17 66 C-17 65.34 -17 64.68 -17 64 C-17.66 64 -18.32 64 -19 64 C-19.33 62.68 -19.66 61.36 -20 60 C-20.66 60 -21.32 60 -22 60 C-22 59.34 -22 58.68 -22 58 C-22.66 58 -23.32 58 -24 58 C-24.391875 57.525625 -24.78375 57.05125 -25.1875 56.5625 C-27.01946153 54.64698265 -27.01946153 54.64698265 -30.3125 54.9375 C-34.66385233 53.83122398 -34.9626198 53.14186906 -37.1875 49.4375 C-38.14203687 47.63391416 -39.08004109 45.82146592 -40 44 C-40.65935547 42.89591797 -40.65935547 42.89591797 -41.33203125 41.76953125 C-43.34095043 38.29591515 -44.15354223 36.7984196 -43.375 32.75 C-42.92125 31.8425 -42.4675 30.935 -42 30 C-41.71125 29.2575 -41.4225 28.515 -41.125 27.75 C-39.72531795 25.57271681 -38.32322317 25.04919756 -36 24 C-35.67 23.34 -35.34 22.68 -35 22 C-34.34 22 -33.68 22 -33 22 C-33 22.66 -33 23.32 -33 24 C-30.36 24 -27.72 24 -25 24 C-25 24.66 -25 25.32 -25 26 C-24.34 26 -23.68 26 -23 26 C-23 26.66 -23 27.32 -23 28 C-22.34 28 -21.68 28 -21 28 C-20.71125 28.804375 -20.4225 29.60875 -20.125 30.4375 C-19.26737432 33.1326468 -19.26737432 33.1326468 -17 34 C-16.29508733 36.32206525 -15.62787571 38.65593068 -15 41 C-14.505 41.495 -14.505 41.495 -14 42 C-13.76470588 47.52941176 -13.76470588 47.52941176 -15 50 C-15.66 50 -16.32 50 -17 50 C-17 50.66 -17 51.32 -17 52 C-17.66 52 -18.32 52 -19 52 C-19 52.66 -19 53.32 -19 54 C-18.34 54 -17.68 54 -17 54 C-16.67 55.32 -16.34 56.64 -16 58 C-15.34 58 -14.68 58 -14 58 C-14 58.66 -14 59.32 -14 60 C-12.515 60.495 -12.515 60.495 -11 61 C-11 61.66 -11 62.32 -11 63 C-8.03 62.505 -8.03 62.505 -5 62 C-5 62.66 -5 63.32 -5 64 C-4.34 64 -3.68 64 -3 64 C-2.01 65.485 -2.01 65.485 -1 67 C1.05925139 67.72382467 1.05925139 67.72382467 3 68 C3 68.66 3 69.32 3 70 C12.24 70 21.48 70 31 70 C31 69.34 31 68.68 31 68 C32.32 68 33.64 68 35 68 C35 67.34 35 66.68 35 66 C35.66 66 36.32 66 37 66 C37 65.34 37 64.68 37 64 C38.65 64 40.3 64 42 64 C42 63.34 42 62.68 42 62 C44.63892176 60.21694476 46.97178863 59.00940379 50 58 C50.77403558 53.93631321 51.0984702 50.13574827 51 46 C51.66 46 52.32 46 53 46 C53 47.32 53 48.64 53 50 C53.66 50 54.32 50 55 50 C55.66 44.06 56.32 38.12 57 32 C56.01 32 55.02 32 54 32 C54 29.36 54 26.72 54 24 C53.34 24 52.68 24 52 24 C51.505 22.02 51.505 22.02 51 20 C50.34 20 49.68 20 49 20 C49 19.34 49 18.68 49 18 C48.34 18 47.68 18 47 18 C46.505 16.02 46.505 16.02 46 14 C44.35 14 42.7 14 41 14 C40.505 12.02 40.505 12.02 40 10 C38.68 10 37.36 10 36 10 C36 9.34 36 8.68 36 8 C32.61363691 7.25484101 29.38056897 6.83229437 25.91796875 6.68359375 C24.98662109 6.64169922 24.05527344 6.59980469 23.09570312 6.55664062 C22.13599609 6.51732422 21.17628906 6.47800781 20.1875 6.4375 C19.20845703 6.39431641 18.22941406 6.35113281 17.22070312 6.30664062 C14.81392973 6.2009774 12.40706017 6.09887673 10 6 C10 6.66 10 7.32 10 8 C9.27554688 8.03738281 8.55109375 8.07476562 7.8046875 8.11328125 C2.15392978 8.49753278 -2.02913036 9.06846149 -7 12 C-7.66 12 -8.32 12 -9 12 C-9 12.66 -9 13.32 -9 14 C-9.99 14 -10.98 14 -12 14 C-12 15.98 -12 17.96 -12 20 C-10.35 20 -8.7 20 -7 20 C-7 20.66 -7 21.32 -7 22 C-6.34 22 -5.68 22 -5 22 C-5 22.66 -5 23.32 -5 24 C-4.34 24 -3.68 24 -3 24 C-3 24.66 -3 25.32 -3 26 C-1.68 26 -0.36 26 1 26 C1 25.34 1 24.68 1 24 C2.32 24 3.64 24 5 24 C5 24.66 5 25.32 5 26 C9.95 26 14.9 26 20 26 C20 25.34 20 24.68 20 24 C22.39760577 24.23525568 24.7947486 24.47398496 27.19140625 24.71875 C28.96895346 24.89675195 30.74756046 25.06470384 32.52734375 25.21875 C33.30207031 25.2909375 34.07679688 25.363125 34.875 25.4375 C35.57367188 25.49808594 36.27234375 25.55867188 36.9921875 25.62109375 C39.26090333 26.04923662 40.98834455 26.88592176 43 28 C43.02698189 29.62490954 43.04638757 31.24994633 43.0625 32.875 C43.07410156 33.77992188 43.08570313 34.68484375 43.09765625 35.6171875 C43 38 43 38 42 40 C41.79777644 41.66272703 41.63588613 43.33054185 41.5 45 C41.11111111 49.77777778 41.11111111 49.77777778 40 52 C40.66 52 41.32 52 42 52 C42.99 54.97 42.99 54.97 44 58 C42.25 60 42.25 60 40 62 C38.68 62 37.36 62 36 62 C36 62.66 36 63.32 36 64 C32.71303767 64.79953138 31.28976808 65.09658936 28 64 C26.8125 60.9375 26.8125 60.9375 26 58 C23.03 58 20.06 58 17 58 C16.79375 58.94875 16.5875 59.8975 16.375 60.875 C15 64 15 64 11.875 65.375 C10.451875 65.684375 10.451875 65.684375 9 66 C7.5 64.9375 7.5 64.9375 6 63 C5.8125 59.3125 5.8125 59.3125 6 56 C3.69 56 1.38 56 -1 56 C-1 55.34 -1 54.68 -1 54 C-1.99 54 -2.98 54 -4 54 C-6.71626533 49.06133577 -8.24446672 44.15592529 -9.6875 38.75 C-9.91244141 37.9353125 -10.13738281 37.120625 -10.36914062 36.28125 C-12 30.29317059 -12 30.29317059 -12 28 C-12.66 28 -13.32 28 -14 28 C-14 27.34 -14 26.68 -14 26 C-15.1446875 25.7834375 -15.1446875 25.7834375 -16.3125 25.5625 C-19.63737762 24.86659538 -21.56552823 24.43447177 -24 22 C-24.33 21.34 -24.66 20.68 -25 20 C-24.34 20 -23.68 20 -23 20 C-23 18.68 -23 17.36 -23 16 C-22.01 16 -21.02 16 -20 16 C-19.67 14.68 -19.34 13.36 -19 12 C-18.34 12 -17.68 12 -17 12 C-17 11.34 -17 10.68 -17 10 C-15.35 9.34 -13.7 8.68 -12 8 C-12 7.34 -12 6.68 -12 6 C-10.68 6 -9.36 6 -8 6 C-8 5.34 -8 4.68 -8 4 C-6.35 4 -4.7 4 -3 4 C-3 3.34 -3 2.68 -3 2 C-2.01 2 -1.02 2 0 2 C0 1.34 0 0.68 0 0 Z M28 32 C28 32.66 28 33.32 28 34 C30.31 34 32.62 34 35 34 C35.33 33.34 35.66 32.68 36 32 C31.89776415 30.98459888 31.89776415 30.98459888 28 32 Z M-2 32 C-2 32.66 -2 33.32 -2 34 C-0.02 34 1.96 34 4 34 C3.67 33.01 3.34 32.02 3 31 C0.78918149 30.89459074 0.78918149 30.89459074 -2 32 Z M12 32 C12 32.66 12 33.32 12 34 C14.31 34 16.62 34 19 34 C19 33.34 19 32.68 19 32 C16.69 32 14.38 32 12 32 Z M14 40 C15 42 15 42 15 42 Z M19 40 C19 40.66 19 41.32 19 42 C19.66 42 20.32 42 21 42 C21 41.34 21 40.68 21 40 C20.34 40 19.68 40 19 40 Z M28 40 C28 40.66 28 41.32 28 42 C29.98 42 31.96 42 34 42 C34 41.34 34 40.68 34 40 C32.02 40 30.04 40 28 40 Z M-22 43 C-22.99 43.495 -22.99 43.495 -24 44 C-24 44.66 -24 45.32 -24 46 C-23.34 46 -22.68 46 -22 46 C-22 46.66 -22 47.32 -22 48 C-21.01 47.67 -20.02 47.34 -19 47 C-19 46.01 -19 45.02 -19 44 C-19.99 43.67 -20.98 43.34 -22 43 Z M-31 46 C-31.33 47.32 -31.66 48.64 -32 50 C-29.525 50.495 -29.525 50.495 -27 51 C-26.67 50.01 -26.34 49.02 -26 48 C-26.33 47.34 -26.66 46.68 -27 46 C-28.32 46 -29.64 46 -31 46 Z M29 48 C29 48.66 29 49.32 29 50 C29.66 50 30.32 50 31 50 C31 49.34 31 48.68 31 48 C30.34 48 29.68 48 29 48 Z " fill="#00898C" transform="translate(163,140)"/>
<path d="M0 0 C0.99 0 1.98 0 3 0 C3 0.66 3 1.32 3 2 C3.66 2 4.32 2 5 2 C5 2.66 5 3.32 5 4 C5.66 4 6.32 4 7 4 C7 4.66 7 5.32 7 6 C7.99 6 8.98 6 10 6 C10.495 7.98 10.495 7.98 11 10 C11.66 10 12.32 10 13 10 C13 10.66 13 11.32 13 12 C13.66 12 14.32 12 15 12 C21.77106903 24.95049126 22.0602472 33.93414364 18 48 C17.34 48 16.68 48 16 48 C15.9175 48.5775 15.835 49.155 15.75 49.75 C14.78202213 52.6539336 13.31305716 54.03740604 11 56 C10.34 56 9.68 56 9 56 C8.71125 56.61875 8.4225 57.2375 8.125 57.875 C7 60 7 60 5 62 C4.01 62 3.02 62 2 62 C2 62.66 2 63.32 2 64 C1.01 64 0.02 64 -1 64 C-1 64.66 -1 65.32 -1 66 C-2.32 66 -3.64 66 -5 66 C-5 66.66 -5 67.32 -5 68 C-6.65 68 -8.3 68 -10 68 C-10 68.66 -10 69.32 -10 70 C-11.98 70 -13.96 70 -16 70 C-16 70.66 -16 71.32 -16 72 C-20.29 72 -24.58 72 -29 72 C-29.33 72.66 -29.66 73.32 -30 74 C-30 73.34 -30 72.68 -30 72 C-31.32 72 -32.64 72 -34 72 C-34 71.34 -34 70.68 -34 70 C-34.845625 70.061875 -35.69125 70.12375 -36.5625 70.1875 C-40.60810909 69.96683041 -43.33098704 68.66773316 -47 67 C-49.77888613 66.30859478 -49.77888613 66.30859478 -52 66 C-52 65.34 -52 64.68 -52 64 C-52.66 64 -53.32 64 -54 64 C-54 63.34 -54 62.68 -54 62 C-55.32 62 -56.64 62 -58 62 C-58 61.34 -58 60.68 -58 60 C-58.66 60 -59.32 60 -60 60 C-60 59.34 -60 58.68 -60 58 C-60.66 58 -61.32 58 -62 58 C-62.33 56.68 -62.66 55.36 -63 54 C-63.66 54 -64.32 54 -65 54 C-65 53.34 -65 52.68 -65 52 C-65.66 52 -66.32 52 -67 52 C-67.391875 51.525625 -67.78375 51.05125 -68.1875 50.5625 C-70.01946153 48.64698265 -70.01946153 48.64698265 -73.3125 48.9375 C-77.66385233 47.83122398 -77.9626198 47.14186906 -80.1875 43.4375 C-81.14203687 41.63391416 -82.08004109 39.82146592 -83 38 C-83.65935547 36.89591797 -83.65935547 36.89591797 -84.33203125 35.76953125 C-86.34095043 32.29591515 -87.15354223 30.7984196 -86.375 26.75 C-85.92125 25.8425 -85.4675 24.935 -85 24 C-84.71125 23.2575 -84.4225 22.515 -84.125 21.75 C-82.72531795 19.57271681 -81.32322317 19.04919756 -79 18 C-78.67 17.34 -78.34 16.68 -78 16 C-77.34 16 -76.68 16 -76 16 C-76 16.66 -76 17.32 -76 18 C-73.36 18 -70.72 18 -68 18 C-68 18.66 -68 19.32 -68 20 C-67.34 20 -66.68 20 -66 20 C-66 20.66 -66 21.32 -66 22 C-65.34 22 -64.68 22 -64 22 C-63.71125 22.804375 -63.4225 23.60875 -63.125 24.4375 C-62.26737432 27.1326468 -62.26737432 27.1326468 -60 28 C-59.29508733 30.32206525 -58.62787571 32.65593068 -58 35 C-57.505 35.495 -57.505 35.495 -57 36 C-56.76470588 41.52941176 -56.76470588 41.52941176 -58 44 C-58.66 44 -59.32 44 -60 44 C-60 44.66 -60 45.32 -60 46 C-60.66 46 -61.32 46 -62 46 C-62 46.66 -62 47.32 -62 48 C-61.34 48 -60.68 48 -60 48 C-59.67 49.32 -59.34 50.64 -59 52 C-58.34 52 -57.68 52 -57 52 C-57 52.66 -57 53.32 -57 54 C-55.515 54.495 -55.515 54.495 -54 55 C-54 55.66 -54 56.32 -54 57 C-51.03 56.505 -51.03 56.505 -48 56 C-48 56.66 -48 57.32 -48 58 C-47.34 58 -46.68 58 -46 58 C-45.34 58.99 -44.68 59.98 -44 61 C-41.94074861 61.72382467 -41.94074861 61.72382467 -40 62 C-40 62.66 -40 63.32 -40 64 C-30.76 64 -21.52 64 -12 64 C-12 63.34 -12 62.68 -12 62 C-10.68 62 -9.36 62 -8 62 C-8 61.34 -8 60.68 -8 60 C-7.34 60 -6.68 60 -6 60 C-6 59.34 -6 58.68 -6 58 C-4.35 58 -2.7 58 -1 58 C-1 57.34 -1 56.68 -1 56 C1.63892176 54.21694476 3.97178863 53.00940379 7 52 C7.77403558 47.93631321 8.0984702 44.13574827 8 40 C8.66 40 9.32 40 10 40 C10 41.32 10 42.64 10 44 C10.66 44 11.32 44 12 44 C12.66 38.06 13.32 32.12 14 26 C13.01 26 12.02 26 11 26 C11 23.36 11 20.72 11 18 C10.34 18 9.68 18 9 18 C8.505 16.02 8.505 16.02 8 14 C8.66 14 9.32 14 10 14 C7.95867354 9.07680089 5.24520801 6.00016403 1.42578125 2.41796875 C0.95527344 1.95003906 0.48476562 1.48210937 0 1 C0 0.67 0 0.34 0 0 Z M-65 37 C-65.99 37.495 -65.99 37.495 -67 38 C-67 38.66 -67 39.32 -67 40 C-66.34 40 -65.68 40 -65 40 C-65 40.66 -65 41.32 -65 42 C-64.01 41.67 -63.02 41.34 -62 41 C-62 40.01 -62 39.02 -62 38 C-62.99 37.67 -63.98 37.34 -65 37 Z M-74 40 C-74.33 41.32 -74.66 42.64 -75 44 C-72.525 44.495 -72.525 44.495 -70 45 C-69.67 44.01 -69.34 43.02 -69 42 C-69.33 41.34 -69.66 40.68 -70 40 C-71.32 40 -72.64 40 -74 40 Z " fill="#01898C" transform="translate(206,146)"/>
<path d="M0 0 C0.99 0 1.98 0 3 0 C3 0.66 3 1.32 3 2 C3.66 2 4.32 2 5 2 C5 2.66 5 3.32 5 4 C5.66 4 6.32 4 7 4 C7 4.66 7 5.32 7 6 C7.99 6 8.98 6 10 6 C10.495 7.98 10.495 7.98 11 10 C11.66 10 12.32 10 13 10 C13 10.66 13 11.32 13 12 C13.66 12 14.32 12 15 12 C21.77106903 24.95049126 22.0602472 33.93414364 18 48 C17.34 48 16.68 48 16 48 C15.9175 48.5775 15.835 49.155 15.75 49.75 C14.78202213 52.6539336 13.31305716 54.03740604 11 56 C10.34 56 9.68 56 9 56 C8.71125 56.61875 8.4225 57.2375 8.125 57.875 C7 60 7 60 5 62 C4.01 62 3.02 62 2 62 C2 62.66 2 63.32 2 64 C1.01 64 0.02 64 -1 64 C-1 64.66 -1 65.32 -1 66 C-2.32 66 -3.64 66 -5 66 C-5 66.66 -5 67.32 -5 68 C-6.65 68 -8.3 68 -10 68 C-10 68.66 -10 69.32 -10 70 C-11.98 70 -13.96 70 -16 70 C-16 70.66 -16 71.32 -16 72 C-20.29 72 -24.58 72 -29 72 C-29.33 72.66 -29.66 73.32 -30 74 C-30 73.34 -30 72.68 -30 72 C-31.32 72 -32.64 72 -34 72 C-34 71.34 -34 70.68 -34 70 C-34.845625 70.061875 -35.69125 70.12375 -36.5625 70.1875 C-40.60810909 69.96683041 -43.33098704 68.66773316 -47 67 C-49.77888613 66.30859478 -49.77888613 66.30859478 -52 66 C-52 65.34 -52 64.68 -52 64 C-52.66 64 -53.32 64 -54 64 C-54 63.34 -54 62.68 -54 62 C-55.32 62 -56.64 62 -58 62 C-58 61.34 -58 60.68 -58 60 C-58.66 60 -59.32 60 -60 60 C-60 59.34 -60 58.68 -60 58 C-60.66 58 -61.32 58 -62 58 C-62.495 56.515 -62.495 56.515 -63 55 C-59.91357813 55.6063831 -57.84649121 56.58510295 -55.3125 58.4375 C-54.71050781 58.86933594 -54.10851562 59.30117187 -53.48828125 59.74609375 C-52 61 -52 61 -51 63 C-46.8307633 65.12358318 -42.71023203 66.44158425 -38 66 C-40.64 65.01 -43.28 64.02 -46 63 C-46 62.67 -46 62.34 -46 62 C-44.02 62 -42.04 62 -40 62 C-40 62.66 -40 63.32 -40 64 C-30.76 64 -21.52 64 -12 64 C-12 63.34 -12 62.68 -12 62 C-10.68 62 -9.36 62 -8 62 C-8 61.34 -8 60.68 -8 60 C-7.34 60 -6.68 60 -6 60 C-6 59.34 -6 58.68 -6 58 C-4.35 58 -2.7 58 -1 58 C-1 57.34 -1 56.68 -1 56 C1.63892176 54.21694476 3.97178863 53.00940379 7 52 C7.77403558 47.93631321 8.0984702 44.13574827 8 40 C8.66 40 9.32 40 10 40 C10 41.32 10 42.64 10 44 C10.66 44 11.32 44 12 44 C12.66 38.06 13.32 32.12 14 26 C13.01 26 12.02 26 11 26 C11 23.36 11 20.72 11 18 C10.34 18 9.68 18 9 18 C8.505 16.02 8.505 16.02 8 14 C8.66 14 9.32 14 10 14 C7.95867354 9.07680089 5.24520801 6.00016403 1.42578125 2.41796875 C0.95527344 1.95003906 0.48476562 1.48210937 0 1 C0 0.67 0 0.34 0 0 Z " fill="#128E93" transform="translate(206,146)"/>
<path d="M0 0 C0.33 0 0.66 0 1 0 C1 1.98 1 3.96 1 6 C0.34 6 -0.32 6 -1 6 C-1.0825 6.5775 -1.165 7.155 -1.25 7.75 C-2.21797787 10.6539336 -3.68694284 12.03740604 -6 14 C-6.66 14 -7.32 14 -8 14 C-8.28875 14.61875 -8.5775 15.2375 -8.875 15.875 C-10 18 -10 18 -12 20 C-12.99 20 -13.98 20 -15 20 C-15 20.66 -15 21.32 -15 22 C-15.99 22 -16.98 22 -18 22 C-18 22.66 -18 23.32 -18 24 C-19.32 24 -20.64 24 -22 24 C-22 24.66 -22 25.32 -22 26 C-23.65 26 -25.3 26 -27 26 C-27 26.66 -27 27.32 -27 28 C-28.98 28 -30.96 28 -33 28 C-33 28.66 -33 29.32 -33 30 C-37.29 30 -41.58 30 -46 30 C-46.33 30.66 -46.66 31.32 -47 32 C-47 31.34 -47 30.68 -47 30 C-48.32 30 -49.64 30 -51 30 C-51 29.34 -51 28.68 -51 28 C-51.845625 28.061875 -52.69125 28.12375 -53.5625 28.1875 C-57.60810909 27.96683041 -60.33098704 26.66773316 -64 25 C-66.77888613 24.30859478 -66.77888613 24.30859478 -69 24 C-69 23.34 -69 22.68 -69 22 C-69.66 22 -70.32 22 -71 22 C-71 21.34 -71 20.68 -71 20 C-72.32 20 -73.64 20 -75 20 C-75 19.34 -75 18.68 -75 18 C-75.66 18 -76.32 18 -77 18 C-77 17.34 -77 16.68 -77 16 C-77.66 16 -78.32 16 -79 16 C-79.33 15.01 -79.66 14.02 -80 13 C-76.91357813 13.6063831 -74.84649121 14.58510295 -72.3125 16.4375 C-71.71050781 16.86933594 -71.10851562 17.30117187 -70.48828125 17.74609375 C-69 19 -69 19 -68 21 C-63.8307633 23.12358318 -59.71023203 24.44158425 -55 24 C-57.64 23.01 -60.28 22.02 -63 21 C-63 20.67 -63 20.34 -63 20 C-61.02 20 -59.04 20 -57 20 C-57 20.66 -57 21.32 -57 22 C-47.76 22 -38.52 22 -29 22 C-29 21.34 -29 20.68 -29 20 C-27.68 20.33 -26.36 20.66 -25 21 C-25.33 21.66 -25.66 22.32 -26 23 C-14.47624529 18.58664713 -5.25846002 11.46819924 0 0 Z " fill="#2099BE" transform="translate(223,188)"/>
<path d="M0 0 C0.33 0 0.66 0 1 0 C1.80001288 11.73352226 -0.20960612 23.85465197 -6.0859375 34.171875 C-7.14481045 36.28962089 -7.63107755 38.32512056 -8.1875 40.625 C-9.54006196 45.48814412 -11.86040283 49.41132572 -14.5625 53.625 C-14.96299561 54.2535791 -15.36349121 54.8821582 -15.77612305 55.52978516 C-16.79062637 57.06142373 -17.88895713 58.53688092 -19 60 C-19.66 60 -20.32 60 -21 60 C-21.04125 60.5775 -21.0825 61.155 -21.125 61.75 C-22.44065958 65.13312465 -24.96552364 66.19222685 -28 68 C-27.625 66.0625 -27.625 66.0625 -27 64 C-26.01 63.505 -26.01 63.505 -25 63 C-24.67 62.01 -24.34 61.02 -24 60 C-23.34 60 -22.68 60 -22 60 C-22 59.34 -22 58.68 -22 58 C-21.34 58 -20.68 58 -20 58 C-19.566875 56.63875 -19.566875 56.63875 -19.125 55.25 C-18.23468224 52.67797092 -17.28505587 50.38653234 -16 48 C-15.34 48 -14.68 48 -14 48 C-13.01 44.04 -12.02 40.08 -11 36 C-10.34 36 -9.68 36 -9 36 C-7.23461521 32.97362608 -6.42826363 29.92539445 -5.63671875 26.53125 C-4.8397562 23.36295715 -3.87935629 20.25318694 -2.9375 17.125 C-1.27813222 11.40048959 -0.27415383 5.94913811 0 0 Z " fill="#36A4B0" transform="translate(344,214)"/>
<path d="M0 0 C0.99 0.33 1.98 0.66 3 1 C-2.56895862 8.34846494 -9.34437565 13.75414087 -18 17 C-19.69308224 17.86414917 -21.38022831 18.73998971 -23.0625 19.625 C-26.71787101 21.48337946 -29.8585088 22.67304017 -34 23 C-34 23.66 -34 24.32 -34 25 C-38.95 25.495 -38.95 25.495 -44 26 C-44 24.68 -44 23.36 -44 22 C-43.34 22 -42.68 22 -42 22 C-42 22.66 -42 23.32 -42 24 C-40.68 24 -39.36 24 -38 24 C-38 23.34 -38 22.68 -38 22 C-36.35 22 -34.7 22 -33 22 C-33 21.34 -33 20.68 -33 20 C-31.35 20 -29.7 20 -28 20 C-28 19.34 -28 18.68 -28 18 C-26.35 18 -24.7 18 -23 18 C-23.33 16.68 -23.66 15.36 -24 14 C-21.36 14 -18.72 14 -16 14 C-16 13.34 -16 12.68 -16 12 C-14.68 12 -13.36 12 -12 12 C-12 11.34 -12 10.68 -12 10 C-11.01 10 -10.02 10 -9 10 C-9 8.68 -9 7.36 -9 6 C-7.68 6 -6.36 6 -5 6 C-5 5.34 -5 4.68 -5 4 C-3.68 4 -2.36 4 -1 4 C-0.67 2.68 -0.34 1.36 0 0 Z " fill="#44ABAE" transform="translate(300,294)"/>
<path d="M0 0 C3.08642187 0.6063831 5.15350879 1.58510295 7.6875 3.4375 C8.28949219 3.86933594 8.89148438 4.30117187 9.51171875 4.74609375 C11 6 11 6 12 8 C16.1692367 10.12358318 20.28976797 11.44158425 25 11 C22.36 10.01 19.72 9.02 17 8 C17 7.67 17 7.34 17 7 C18.98 7 20.96 7 23 7 C23 7.66 23 8.32 23 9 C23.969375 9.144375 24.93875 9.28875 25.9375 9.4375 C29 10 29 10 30 11 C37.72177465 11.36063233 45.34841858 11.05539054 53 10 C52 12 52 12 49.1875 13.125 C43.84233354 14.49916223 38.47454993 14.20367548 33 14 C32.33629395 13.97534668 31.67258789 13.95069336 30.98876953 13.92529297 C17.21721598 13.36754664 17.21721598 13.36754664 11 11 C11 10.34 11 9.68 11 9 C10.34 9 9.68 9 9 9 C9 8.34 9 7.68 9 7 C7.68 7 6.36 7 5 7 C5 6.34 5 5.68 5 5 C4.34 5 3.68 5 3 5 C3 4.34 3 3.68 3 3 C2.34 3 1.68 3 1 3 C0.67 2.01 0.34 1.02 0 0 Z " fill="#188F9E" transform="translate(143,201)"/>
<path d="M0 0 C0.33 0 0.66 0 1 0 C1.43266979 11.55388598 0.38575563 18.72963103 -6.96484375 27.84375 C-10.16715584 31.23660273 -13.77048602 34.00642132 -18 36 C-19.32 36 -20.64 36 -22 36 C-22 35.34 -22 34.68 -22 34 C-21.34 34 -20.68 34 -20 34 C-20 33.34 -20 32.68 -20 32 C-18.35 32 -16.7 32 -15 32 C-15 31.34 -15 30.68 -15 30 C-12.36107824 28.21694476 -10.02821137 27.00940379 -7 26 C-6.22596442 21.93631321 -5.9015298 18.13574827 -6 14 C-5.34 14 -4.68 14 -4 14 C-4 15.32 -4 16.64 -4 18 C-3.34 18 -2.68 18 -2 18 C-1.34 12.06 -0.68 6.12 0 0 Z " fill="#2CA0AA" transform="translate(220,172)"/>
<path d="M0 0 C0.33 0.66 0.66 1.32 1 2 C-0.33833516 4.6085692 -1.72522299 7.06677836 -3.25 9.5625 C-3.65863281 10.26052734 -4.06726563 10.95855469 -4.48828125 11.67773438 C-5.08962891 12.67450195 -5.08962891 12.67450195 -5.703125 13.69140625 C-6.07083008 14.30185791 -6.43853516 14.91230957 -6.81738281 15.54125977 C-8 17 -8 17 -11 18 C-11.103125 18.598125 -11.20625 19.19625 -11.3125 19.8125 C-12.39002541 23.24098994 -15.02264882 24.22625887 -18 26 C-17.625 24.0625 -17.625 24.0625 -17 22 C-16.34 21.67 -15.68 21.34 -15 21 C-14.67 20.01 -14.34 19.02 -14 18 C-13.34 18 -12.68 18 -12 18 C-12 17.34 -12 16.68 -12 16 C-11.34 16 -10.68 16 -10 16 C-9.71125 15.0925 -9.4225 14.185 -9.125 13.25 C-7.36683417 8.17085427 -7.36683417 8.17085427 -6 6 C-5.01 5.67 -4.02 5.34 -3 5 C-1.30117552 2.50240018 -1.30117552 2.50240018 0 0 Z " fill="#1F96AE" transform="translate(334,256)"/>
<path d="M0 0 C7.92 0 15.84 0 24 0 C20.21732113 3.78267887 14.98493257 3.18490532 9.875 3.25 C8.65554687 3.27578125 7.43609375 3.3015625 6.1796875 3.328125 C3 3 3 3 0 0 Z " fill="#37A5AE" transform="translate(170,210)"/>
<path d="M0 0 C3.08642187 0.6063831 5.15350879 1.58510295 7.6875 3.4375 C8.28949219 3.86933594 8.89148438 4.30117187 9.51171875 4.74609375 C11 6 11 6 12 8 C13.81767131 8.83177624 13.81767131 8.83177624 15.9375 9.5 C18.70455204 10.42402464 19.89137369 10.89137369 22 13 C17.91281305 13.24042276 14.82320557 12.42258812 11 11 C11 10.34 11 9.68 11 9 C10.34 9 9.68 9 9 9 C9 8.34 9 7.68 9 7 C7.68 7 6.36 7 5 7 C5 6.34 5 5.68 5 5 C4.34 5 3.68 5 3 5 C3 4.34 3 3.68 3 3 C2.34 3 1.68 3 1 3 C0.67 2.01 0.34 1.02 0 0 Z " fill="#21999C" transform="translate(143,201)"/>
<path d="M0 0 C1.85036151 3.15957955 2.25636825 5.48895902 2.265625 9.1328125 C2.26949219 10.58880859 2.26949219 10.58880859 2.2734375 12.07421875 C2.26570313 13.08097656 2.25796875 14.08773437 2.25 15.125 C2.25773437 16.13949219 2.26546875 17.15398437 2.2734375 18.19921875 C2.27085937 19.16730469 2.26828125 20.13539063 2.265625 21.1328125 C2.26336914 22.01855957 2.26111328 22.90430664 2.25878906 23.81689453 C2 26 2 26 0 28 C-1.16656743 18.52388303 -0.78118882 9.47041213 0 0 Z " fill="#169496" transform="translate(345,194)"/>
<path d="M0 0 C0.66 0.99 1.32 1.98 2 3 C-9.89606742 14 -9.89606742 14 -17 14 C-16.67 13.01 -16.34 12.02 -16 11 C-14.35908474 10.2967506 -12.71446035 9.60068539 -11.05078125 8.953125 C-6.95522146 7.04966483 -2.0571833 4.1143666 0 0 Z " fill="#1290A8" transform="translate(214,197)"/>
<path d="M0 0 C3.68420902 3.68420902 4.14389302 7.96749767 4.25 13 C4.17754384 16.99716461 3.56586863 20.28106201 2 24 C1.67 24 1.34 24 1 24 C0.67 16.08 0.34 8.16 0 0 Z " fill="#5DB7BA" transform="translate(223,164)"/>
<path d="M0 0 C11.52164009 -0.18451025 11.52164009 -0.18451025 17 1 C15.625 2.5 15.625 2.5 14 4 C13.34 4 12.68 4 12 4 C11.67 4.66 11.34 5.32 11 6 C11 5.34 11 4.68 11 4 C9.68 4 8.36 4 7 4 C7 3.34 7 2.68 7 2 C5.02 2 3.04 2 1 2 C0.67 1.34 0.34 0.68 0 0 Z " fill="#3AA2B9" transform="translate(165,214)"/>
<path d="M0 0 C1.32 0.66 2.64 1.32 4 2 C3.375 4.4375 3.375 4.4375 2 7 C-1.125 7.8125 -1.125 7.8125 -4 8 C-4 4.09161134 -2.49432124 2.88405893 0 0 Z " fill="#0A7FD7" transform="translate(324,258)"/>
<path d="M0 0 C0.66 0 1.32 0 2 0 C0.84826645 2.46800047 -0.04783565 4.04783565 -2 6 C-3.32 6 -4.64 6 -6 6 C-6 6.66 -6 7.32 -6 8 C-9.28696233 8.79953138 -10.71023192 9.09658936 -14 8 C-14 7.34 -14 6.68 -14 6 C-12.906875 5.896875 -11.81375 5.79375 -10.6875 5.6875 C-6.88845793 4.97920402 -6.41623585 4.64635355 -4 2 C-2.68 2 -1.36 2 0 2 C0 1.34 0 0.68 0 0 Z " fill="#1B949A" transform="translate(205,196)"/>
<path d="M0 0 C0 0.66 0 1.32 0 2 C-1.98 2 -3.96 2 -6 2 C-6 2.66 -6 3.32 -6 4 C-9.3 3.67 -12.6 3.34 -16 3 C-11.918638 -1.081362 -5.43630843 -0.09372946 0 0 Z " fill="#2B9BC9" transform="translate(196,214)"/>
<path d="M0 0 C3.78239671 0.65690619 7.21841526 1.720131 10.8125 3.0625 C11.78832031 3.42472656 12.76414063 3.78695312 13.76953125 4.16015625 C14.87361328 4.57587891 14.87361328 4.57587891 16 5 C16 5.33 16 5.66 16 6 C9.29873464 6.48736475 4.93438408 5.07708804 -1 2 C-0.67 1.34 -0.34 0.68 0 0 Z " fill="#148D8F" transform="translate(155,207)"/>
<path d="M0 0 C-3.75 2 -3.75 2 -6 2 C-6 2.66 -6 3.32 -6 4 C-9.3 4.33 -12.6 4.66 -16 5 C-16 3.68 -16 2.36 -16 1 C-15.34 1 -14.68 1 -14 1 C-14 1.66 -14 2.32 -14 3 C-12.68 3 -11.36 3 -10 3 C-10 2.34 -10 1.68 -10 1 C-6.59437148 0.22157062 -3.49234244 -0.09978121 0 0 Z " fill="#2A9EA1" transform="translate(272,315)"/>
<path d="M0 0 C0.66 0 1.32 0 2 0 C2 0.66 2 1.32 2 2 C2.66 2 3.32 2 4 2 C6.03219488 5.40351338 6.36891039 8.3232927 6.625 12.25 C6.69976562 13.32765625 6.77453125 14.4053125 6.8515625 15.515625 C6.92503906 16.74539062 6.92503906 16.74539062 7 18 C5.66816913 15.47449499 4.82413745 13.35517066 4.0625 10.5625 C3.07516767 7.25203278 1.82148975 4.89782461 0 2 C0 1.34 0 0.68 0 0 Z " fill="#35A4A5" transform="translate(217,156)"/>
<path d="M0 0 C1.98 0 3.96 0 6 0 C6 0.66 6 1.32 6 2 C6.9075 2.103125 7.815 2.20625 8.75 2.3125 C12 3 12 3 16 6 C12.37 6 8.74 6 5 6 C5.99 5.34 6.98 4.68 8 4 C5.36 3.01 2.72 2.02 0 1 C0 0.67 0 0.34 0 0 Z " fill="#21989B" transform="translate(160,208)"/>
<path d="M0 0 C0.66 0.33 1.32 0.66 2 1 C-5.11389522 9.6309795 -5.11389522 9.6309795 -10 12 C-9.8125 10.1875 -9.8125 10.1875 -9 8 C-7.34051852 6.98812105 -5.67419438 5.9873454 -4 5 C-4 4.01 -4 3.02 -4 2 C-2.68 2 -1.36 2 0 2 C0 1.34 0 0.68 0 0 Z " fill="#30A0AB" transform="translate(314,282)"/>
<path d="M0 0 C3.63 0 7.26 0 11 0 C11 0.33 11 0.66 11 1 C13.97 1.495 13.97 1.495 17 2 C17 2.33 17 2.66 17 3 C14.72975032 3.08097324 12.45867925 3.13917704 10.1875 3.1875 C8.29064453 3.23970703 8.29064453 3.23970703 6.35546875 3.29296875 C3 3 3 3 0 0 Z " fill="#2DA0A5" transform="translate(170,210)"/>
<path d="M0 0 C3 1 3 1 4.16796875 2.99609375 C4.50441406 3.80175781 4.84085938 4.60742188 5.1875 5.4375 C5.53167969 6.24058594 5.87585938 7.04367188 6.23046875 7.87109375 C7 10 7 10 7 12 C5.68 12 4.36 12 3 12 C3 9.36 3 6.72 3 4 C2.34 4 1.68 4 1 4 C0.67 2.68 0.34 1.36 0 0 Z " fill="#1B9799" transform="translate(214,160)"/>
<path d="M0 0 C1.60746056 0.42523816 3.21089836 0.86570126 4.8125 1.3125 C6.15248047 1.67794922 6.15248047 1.67794922 7.51953125 2.05078125 C10.05247738 3.0200819 11.2716496 3.95009604 13 6 C8.91281305 6.24042276 5.82320557 5.42258812 2 4 C2 3.34 2 2.68 2 2 C1.34 2 0.68 2 0 2 C0 1.34 0 0.68 0 0 Z " fill="#45ABAD" transform="translate(152,208)"/>
<path d="M0 0 C0.99 0 1.98 0 3 0 C3 0.66 3 1.32 3 2 C3.66 2 4.32 2 5 2 C5 2.66 5 3.32 5 4 C5.66 4 6.32 4 7 4 C7 4.66 7 5.32 7 6 C7.99 6 8.98 6 10 6 C10.33 7.32 10.66 8.64 11 10 C6.17324411 7.58662205 3.30015998 4.13937592 0 0 Z " fill="#21999C" transform="translate(206,146)"/>
<path d="M0 0 C0.66 0 1.32 0 2 0 C2 2.64 2 5.28 2 8 C1.34 8 0.68 8 0 8 C0 7.34 0 6.68 0 6 C-0.66 6 -1.32 6 -2 6 C-2.33 4.68 -2.66 3.36 -3 2 C-2.01 2 -1.02 2 0 2 C0 1.34 0 0.68 0 0 Z " fill="#0073E5" transform="translate(230,244)"/>
<path d="M0 0 C0.33 0 0.66 0 1 0 C1 1.98 1 3.96 1 6 C0.34 6 -0.32 6 -1 6 C-1.33 7.32 -1.66 8.64 -2 10 C-2.66 10 -3.32 10 -4 10 C-3.4359146 6.05140217 -2.2568294 3.29120954 0 0 Z " fill="#41ACBE" transform="translate(223,188)"/>
<path d="M0 0 C1.45880109 0.14107747 2.91703551 0.28802415 4.375 0.4375 C5.59316406 0.55931641 5.59316406 0.55931641 6.8359375 0.68359375 C9 1 9 1 11 2 C11 2.66 11 3.32 11 4 C9.68 4 8.36 4 7 4 C7 3.34 7 2.68 7 2 C5.02 2 3.04 2 1 2 C0.67 1.34 0.34 0.68 0 0 Z " fill="#61B9C0" transform="translate(165,214)"/>
<path d="M0 0 C0.33 0.99 0.66 1.98 1 3 C0.01 4.485 0.01 4.485 -1 6 C-1.66 6 -2.32 6 -3 6 C-3.33 6.99 -3.66 7.98 -4 9 C-4.99 8.67 -5.98 8.34 -7 8 C-4.69 5.36 -2.38 2.72 0 0 Z " fill="#239BBC" transform="translate(218,196)"/>
<path d="M0 0 C0.66 0.33 1.32 0.66 2 1 C1.67 2.32 1.34 3.64 1 5 C-1.64 5 -4.28 5 -7 5 C-7 4.34 -7 3.68 -7 3 C-5.5459375 2.814375 -5.5459375 2.814375 -4.0625 2.625 C-2.5465625 2.315625 -2.5465625 2.315625 -1 2 C-0.67 1.34 -0.34 0.68 0 0 Z " fill="#1285D7" transform="translate(313,269)"/>
<path d="M0 0 C0.33 0 0.66 0 1 0 C0.67 2.97 0.34 5.94 0 9 C-0.66 9 -1.32 9 -2 9 C-1.125 2.25 -1.125 2.25 0 0 Z " fill="#41AAB0" transform="translate(340,236)"/>
<path d="M0 0 C2.97 0 5.94 0 9 0 C9 0.66 9 1.32 9 2 C6.03 2 3.06 2 0 2 C0 1.34 0 0.68 0 0 Z " fill="#0778E4" transform="translate(240,196)"/>
<path d="M0 0 C0.99 0.99 1.98 1.98 3 3 C2.34 4.32 1.68 5.64 1 7 C0.01 6.67 -0.98 6.34 -2 6 C-1.34 4.02 -0.68 2.04 0 0 Z " fill="#1B8AD1" transform="translate(325,258)"/>
<path d="M0 0 C-0.99 0.33 -1.98 0.66 -3 1 C-3 1.66 -3 2.32 -3 3 C-4.65 3 -6.3 3 -8 3 C-8 2.34 -8 1.68 -8 1 C-3.375 -1.125 -3.375 -1.125 0 0 Z " fill="#0073E5" transform="translate(222,245)"/>
<path d="M0 0 C0 1.32 0 2.64 0 4 C-1.65 3.67 -3.3 3.34 -5 3 C-2.25 0 -2.25 0 0 0 Z " fill="#0180DF" transform="translate(240,276)"/>
<path d="M0 0 C0.66 0 1.32 0 2 0 C2 1.32 2 2.64 2 4 C0.68 4 -0.64 4 -2 4 C-1.34 2.68 -0.68 1.36 0 0 Z " fill="#0073E5" transform="translate(222,250)"/>
<path d="M0 0 C2.31 0 4.62 0 7 0 C6.67 0.66 6.34 1.32 6 2 C4.02 2 2.04 2 0 2 C0 1.34 0 0.68 0 0 Z " fill="#007BE1" transform="translate(197,250)"/>
<path d="M0 0 C0.99 0 1.98 0 3 0 C3 1.32 3 2.64 3 4 C2.01 4 1.02 4 0 4 C0 2.68 0 1.36 0 0 Z " fill="#087AE4" transform="translate(272,278)"/>
<path d="M0 0 C1.32 0 2.64 0 4 0 C3.67 1.32 3.34 2.64 3 4 C2.34 4 1.68 4 1 4 C0.67 2.68 0.34 1.36 0 0 Z " fill="#0073E5" transform="translate(263,258)"/>
<path d="M0 0 C0.99 0 1.98 0 3 0 C3 1.32 3 2.64 3 4 C2.01 4 1.02 4 0 4 C0 2.68 0 1.36 0 0 Z " fill="#107FE4" transform="translate(314,220)"/>
<path d="M0 0 C1.65 0 3.3 0 5 0 C5 0.66 5 1.32 5 2 C3.35 1.67 1.7 1.34 0 1 C0 0.67 0 0.34 0 0 Z " fill="#B1DCDF" transform="translate(165,222)"/>
<path d="M0 0 C1.32 0 2.64 0 4 0 C4 0.66 4 1.32 4 2 C2.68 2 1.36 2 0 2 C0 1.34 0 0.68 0 0 Z " fill="#067BE3" transform="translate(256,278)"/>
<path d="M0 0 C1.32 0 2.64 0 4 0 C4 0.66 4 1.32 4 2 C2.68 2 1.36 2 0 2 C0 1.34 0 0.68 0 0 Z " fill="#0073E5" transform="translate(214,254)"/>
<path d="M0 0 C1.32 0 2.64 0 4 0 C4 0.66 4 1.32 4 2 C2.68 2 1.36 2 0 2 C0 1.34 0 0.68 0 0 Z " fill="#077DE0" transform="translate(226,200)"/>
<path d="M0 0 C0.66 0 1.32 0 2 0 C2 1.32 2 2.64 2 4 C1.34 4 0.68 4 0 4 C0 2.68 0 1.36 0 0 Z " fill="#02898C" transform="translate(144,146)"/>
<path d="M0 0 C0.66 0 1.32 0 2 0 C2 1.32 2 2.64 2 4 C1.34 4 0.68 4 0 4 C0 2.68 0 1.36 0 0 Z " fill="#007CE0" transform="translate(224,270)"/>
<path d="M0 0 C0.66 0 1.32 0 2 0 C2 1.32 2 2.64 2 4 C1.34 3.67 0.68 3.34 0 3 C0 2.01 0 1.02 0 0 Z " fill="#7AC4CB" transform="translate(336,230)"/>
<path d="M0 0 C0.99 0 1.98 0 3 0 C3 0.66 3 1.32 3 2 C1.68 1.67 0.36 1.34 -1 1 C-0.67 0.67 -0.34 0.34 0 0 Z " fill="#0073E5" transform="translate(202,224)"/>
<path d="M0 0 C0.99 0 1.98 0 3 0 C3 0.66 3 1.32 3 2 C2.01 2 1.02 2 0 2 C0 1.34 0 0.68 0 0 Z " fill="#0073E5" transform="translate(193,224)"/>
<path d="M0 0 C0.66 0 1.32 0 2 0 C1.34 1.32 0.68 2.64 0 4 C0 2.68 0 1.36 0 0 Z " fill="#00898C" transform="translate(146,170)"/>
<path d="M0 0 C0.99 0 1.98 0 3 0 C3 0.66 3 1.32 3 2 C2.01 2 1.02 2 0 2 C0 1.34 0 0.68 0 0 Z " fill="#00898C" transform="translate(196,152)"/>
<path d="M0 0 C0.99 0.33 1.98 0.66 3 1 C2.01 1.33 1.02 1.66 0 2 C0 1.34 0 0.68 0 0 Z " fill="#0074E4" transform="translate(318,256)"/>
<path d="M0 0 C0.99 0.33 1.98 0.66 3 1 C2.01 1.33 1.02 1.66 0 2 C0 1.34 0 0.68 0 0 Z " fill="#0073E5" transform="translate(224,246)"/>
<path d="M0 0 C0.99 0 1.98 0 3 0 C3 0.66 3 1.32 3 2 C2.01 1.67 1.02 1.34 0 1 C0 0.67 0 0.34 0 0 Z " fill="#0073E5" transform="translate(253,202)"/>
<path d="M0 0 C0.99 0 1.98 0 3 0 C3 0.66 3 1.32 3 2 C2.01 1.67 1.02 1.34 0 1 C0 0.67 0 0.34 0 0 Z " fill="#00898C" transform="translate(291,106)"/>
<path d="M0 0 C0.66 0 1.32 0 2 0 C2 0.66 2 1.32 2 2 C1.34 2 0.68 2 0 2 C0 1.34 0 0.68 0 0 Z " fill="#2A9D9F" transform="translate(176,306)"/>
<path d="M0 0 C0.66 0 1.32 0 2 0 C2 0.66 2 1.32 2 2 C1.34 2 0.68 2 0 2 C0 1.34 0 0.68 0 0 Z " fill="#0073E5" transform="translate(278,266)"/>
<path d="M0 0 C0.66 0 1.32 0 2 0 C2 0.66 2 1.32 2 2 C1.34 2 0.68 2 0 2 C0 1.34 0 0.68 0 0 Z " fill="#5EB3D3" transform="translate(332,240)"/>
<path d="M0 0 C0.66 0 1.32 0 2 0 C2 0.66 2 1.32 2 2 C1.34 2 0.68 2 0 2 C0 1.34 0 0.68 0 0 Z " fill="#1885E4" transform="translate(318,224)"/>
<path d="M0 0 C0.66 0 1.32 0 2 0 C2 0.66 2 1.32 2 2 C1.34 2 0.68 2 0 2 C0 1.34 0 0.68 0 0 Z " fill="#329FA6" transform="translate(190,206)"/>
<path d="M0 0 C0.66 0 1.32 0 2 0 C2 0.66 2 1.32 2 2 C1.34 2 0.68 2 0 2 C0 1.34 0 0.68 0 0 Z " fill="#028A8D" transform="translate(152,196)"/>
<path d="M0 0 C0.66 0 1.32 0 2 0 C2 0.66 2 1.32 2 2 C1.34 2 0.68 2 0 2 C0 1.34 0 0.68 0 0 Z " fill="#0E8F92" transform="translate(214,174)"/>
<path d="M0 0 C0.66 0 1.32 0 2 0 C2 0.66 2 1.32 2 2 C1.34 2 0.68 2 0 2 C0 1.34 0 0.68 0 0 Z " fill="#00898C" transform="translate(192,156)"/>
<path d="M0 0 C0.66 0 1.32 0 2 0 C2 0.66 2 1.32 2 2 C1.34 2 0.68 2 0 2 C0 1.34 0 0.68 0 0 Z " fill="#00898C" transform="translate(330,152)"/>
<path d="M0 0 C0.66 0 1.32 0 2 0 C2 0.66 2 1.32 2 2 C1.34 2 0.68 2 0 2 C0 1.34 0 0.68 0 0 Z " fill="#00898C" transform="translate(192,152)"/>
<path d="M0 0 C0.66 0 1.32 0 2 0 C2 0.66 2 1.32 2 2 C1.34 2 0.68 2 0 2 C0 1.34 0 0.68 0 0 Z " fill="#00898C" transform="translate(142,126)"/>
<path d="M0 0 C0.66 0 1.32 0 2 0 C2 0.66 2 1.32 2 2 C1.34 2 0.68 2 0 2 C0 1.34 0 0.68 0 0 Z " fill="#00898C" transform="translate(256,92)"/>
<path d="M0 0 C0.66 0.66 1.32 1.32 2 2 C1.34 2 0.68 2 0 2 C0 1.34 0 0.68 0 0 Z " fill="#63B9BA" transform="translate(216,148)"/>
<path d="M0 0 C0.66 0 1.32 0 2 0 C1.67 0.66 1.34 1.32 1 2 C0.67 1.34 0.34 0.68 0 0 Z " fill="#00898C" transform="translate(298,110)"/>
<path d="M0 0 C2 1 2 1 2 1 Z " fill="#2E97D6" transform="translate(304,278)"/>
<path d="" fill="#0073E5" transform="translate(0,0)"/>
<path d="M0 0 C2 1 2 1 2 1 Z " fill="#008CD9" transform="translate(192,255)"/>
<path d="" fill="#1D85E6" transform="translate(0,0)"/>
<path d="" fill="#289CC8" transform="translate(0,0)"/>
<path d="M0 0 C2 1 2 1 2 1 Z " fill="#068C8F" transform="translate(132,198)"/>
<path d="" fill="#00898C" transform="translate(0,0)"/>
<path d="" fill="#00898C" transform="translate(0,0)"/>
<path d="" fill="#0F9093" transform="translate(0,0)"/>
<path d="" fill="#00898C" transform="translate(0,0)"/>
<path d="M0 0 C2 1 2 1 2 1 Z " fill="#028A8D" transform="translate(174,95)"/>
<path d="" fill="#38A1A3" transform="translate(0,0)"/>
<path d="" fill="#0073E5" transform="translate(0,0)"/>
<path d="" fill="#0073E5" transform="translate(0,0)"/>
<path d="" fill="#1280E5" transform="translate(0,0)"/>
<path d="" fill="#4BAEAF" transform="translate(0,0)"/>
<path d="" fill="#048B8E" transform="translate(0,0)"/>
<path d="" fill="#00898C" transform="translate(0,0)"/>
<path d="" fill="#00898C" transform="translate(0,0)"/>
<path d="" fill="#6EB8BD" transform="translate(0,0)"/>
<path d="" fill="#028A8D" transform="translate(0,0)"/>
<path d="" fill="#00898C" transform="translate(0,0)"/>
</svg>
